<svg width="113" height="75" viewBox="0 0 113 75" fill="none" xmlns="http://www.w3.org/2000/svg">
<ellipse cx="56.5" cy="37.5" rx="56.5" ry="37.5" fill="white"/>
<g clip-path="url(#clip0_17397_601)">
<path d="M7.18473 32.7952L22.1388 33.1298L35.4289 33.4274L36.0119 33.4398C36.0227 33.4398 36.0365 33.4398 36.0473 33.4398C36.2956 33.4336 36.5131 33.3118 36.6534 33.1283C36.7583 32.991 36.8215 32.8198 36.8184 32.6348C36.8169 32.5746 36.8076 32.516 36.7937 32.459C35.1159 25.9434 37.4198 23.0782 37.4476 23.0381L37.4815 22.9872C37.5185 22.927 41.212 17.0021 48.6605 19.3662C52.7903 20.6755 55.981 20.9685 58.1677 20.9269C55.5446 22.9656 53.8405 25.0305 53.7541 25.1354C53.4781 25.4716 53.5274 25.9681 53.8636 26.2442C54.1998 26.5202 54.6964 26.4709 54.9724 26.1347C55.0249 26.0714 57.867 22.6618 61.7409 20.4241C61.7686 20.4103 61.7948 20.3948 61.8211 20.3779C65.1043 18.5011 69.1138 17.4817 72.7934 20.0386C78.7645 24.1885 78.3713 29.3099 77.5724 32.4065C77.5555 32.4574 77.5416 32.5099 77.5354 32.5654C77.5323 32.6009 77.5262 32.6348 77.5277 32.6702C77.5323 32.843 77.5925 33.0003 77.6912 33.1283C77.8392 33.3226 78.0721 33.4459 78.3342 33.4398L78.9187 33.4274L92.2752 33.1283L106.693 32.806C106.688 32.8013 106.686 32.7982 106.686 32.7936C106.757 32.7813 106.85 32.7443 106.847 32.6348C106.844 32.5561 106.781 32.5268 106.736 32.516C106.716 32.5052 106.7 32.4975 106.697 32.496L79.3258 31.8838C79.972 28.6746 80.12 23.2062 73.6955 18.7417C70.0591 16.2141 65.6841 16.3143 60.9929 19.0131C60.1895 19.2197 56.0735 20.0602 49.1385 17.8611C44.6447 16.4362 41.3492 17.6776 39.3753 18.9684C37.3566 20.2884 36.2956 21.9108 36.1507 22.1421C35.89 22.5199 33.6246 25.416 35.0372 31.8838L7.15851 32.5068C7.15851 32.5068 7.00584 32.5083 7.00121 32.6317C6.99504 32.7566 7.11225 32.7874 7.18473 32.7952Z" fill="url(#paint0_linear_17397_601)"/>
<path d="M106.841 47.5426L106.795 47.541C106.789 47.5349 106.784 47.5287 106.778 47.5241L74.8541 46.8101L73.8425 46.7869C73.8317 46.7869 73.8178 46.7869 73.807 46.7869C73.5772 46.7916 73.3752 46.8964 73.2333 47.0568C73.1069 47.2002 73.0313 47.3868 73.0359 47.5935C73.0359 47.5981 73.0375 47.6012 73.0375 47.6058C72.9974 48.1641 72.8586 49.1695 72.8586 49.1695L72.8617 49.168C71.8115 54.3326 69.3919 60.9098 63.8078 63.8491L63.7492 63.883C63.3714 64.1252 62.6558 64.375 62.4368 64.2054C62.4029 64.1791 61.6118 63.4975 63.137 58.9205C64.181 55.7853 64.0607 53.9363 62.7792 52.1829C60.9703 49.7093 57.5591 49.6985 57.3478 49.7016H56.4395C56.2991 49.7 52.8309 49.6815 51.0034 52.1829C49.7204 53.9378 49.6001 55.7868 50.6457 58.9205C52.1693 63.4929 51.3813 64.1776 51.3473 64.2038C51.1299 64.375 50.4236 64.1267 50.035 63.8815L49.9779 63.8476C44.7362 61.0887 42.2827 55.1237 41.1322 50.1303C41.1245 50.0886 41.1168 50.0424 41.1045 49.9869C40.8546 48.8827 40.759 47.9697 40.7297 47.6135C40.7313 47.5935 40.7344 47.575 40.7344 47.5565C40.7297 47.3745 40.6634 47.211 40.557 47.0799C40.409 46.8964 40.1823 46.7792 39.9294 46.7854L38.9347 46.807L22.1393 47.1863L7.10037 47.5225C7.08341 47.5364 7.06799 47.5518 7.05873 47.5703C7.02789 47.5888 7.00168 47.6181 7.00013 47.6675C6.99551 47.7909 7.11271 47.8217 7.18673 47.8294L22.1408 48.1641L38.3055 48.3291L39.1768 48.3491C40.1669 53.9532 42.7052 61.7873 49.2176 65.2324C49.4243 65.3604 50.2555 65.8385 51.133 65.8385C51.537 65.8385 51.9503 65.7367 52.3173 65.4514C53.4924 64.5369 53.4369 62.3039 52.1431 58.4239C51.2702 55.8069 51.315 54.4421 52.2726 53.122C53.6158 51.2745 56.3932 51.2838 56.4318 51.2792C56.916 51.2499 57.229 51.2684 57.3293 51.2761C57.3555 51.2776 57.3802 51.2792 57.4064 51.2807C57.7626 51.29 60.2439 51.3856 61.5069 53.1143C62.4708 54.4328 62.517 55.8007 61.6426 58.4239C60.3503 62.3039 60.2948 64.5369 61.4699 65.4514C62.6281 66.3536 64.2674 65.419 64.5696 65.2309C71.0821 61.7857 73.6204 53.9517 74.6105 48.3476L75.2736 48.3322L91.8593 48.1625L106.813 47.8279C106.886 47.8202 107.003 47.7893 107 47.6659C106.994 47.5441 106.841 47.5426 106.841 47.5426Z" fill="url(#paint1_linear_17397_601)"/>
<path d="M33.3679 43.5544C32.9577 43.2722 32.5644 42.9329 32.1958 42.5474L29.1147 39.3428L31.7116 36.7459C32.0756 36.3819 32.3994 36.1336 32.6724 36.0072C32.9438 35.8823 33.2615 35.8191 33.6177 35.8191H33.7457V35.2207H32.9299C32.6384 35.2207 32.3747 35.2685 32.145 35.361C31.9198 35.452 31.7116 35.5708 31.5235 35.7157C31.3384 35.8592 31.1611 36.018 30.9992 36.1907C30.8388 36.3603 30.6722 36.5315 30.4995 36.7042L27.8254 39.3783V37.0003C27.8254 36.6564 27.8069 36.3696 27.7684 36.146C27.7283 35.91 27.6527 35.7204 27.5432 35.58C27.4291 35.4335 27.2764 35.3348 27.0898 35.287C26.9202 35.2438 26.7074 35.2207 26.4591 35.2207H25.0928V35.7512H25.4953C25.8577 35.7512 26.0782 35.8499 26.1707 36.055C26.2771 36.2909 26.3311 36.6086 26.3311 37.0019V44.5645H27.8254V40.2111L30.498 43.01C30.8326 43.3632 31.1441 43.65 31.4217 43.8628C31.7008 44.0772 31.9692 44.2499 32.219 44.3779C32.4719 44.5059 32.7094 44.5938 32.9268 44.637C33.1412 44.6786 33.3509 44.7018 33.5514 44.7018C33.7688 44.7018 33.9554 44.6879 34.105 44.6586C34.2515 44.6308 34.3811 44.5969 34.489 44.5568L34.5723 44.526V44.0494L34.4612 44.0356C34.1343 43.9908 33.7673 43.8305 33.3679 43.5544Z" fill="#333333"/>
<path d="M40.1583 40.6818L38.4172 36.8141C38.3339 36.6183 38.2383 36.4271 38.135 36.2435C38.0301 36.0585 37.9083 35.8889 37.7741 35.7393C37.6353 35.5866 37.4719 35.4617 37.2899 35.3676C37.1033 35.272 36.8858 35.2227 36.6468 35.2227H34.8672V35.7454L34.9875 35.7532C35.2836 35.7701 35.5257 35.821 35.7077 35.9012C35.8896 35.9829 36.0438 36.0863 36.1641 36.2112C36.2875 36.3392 36.3939 36.4857 36.4803 36.6491C36.5713 36.8219 36.6576 37.0038 36.7378 37.1935L39.2623 42.7899L39.1451 43.0845C39.0695 43.2757 38.9662 43.433 38.8336 43.5533C38.6994 43.6751 38.5436 43.7707 38.3694 43.8386C38.1905 43.908 37.9993 43.9589 37.7972 43.9897C37.5937 44.0205 37.3917 44.036 37.1974 44.036H37.0694V44.7037H37.8851C38.4604 44.7037 38.9431 44.5665 39.3224 44.295C39.6987 44.0252 39.9902 43.652 40.1906 43.1816L43.6558 35.2242H42.5517L40.1583 40.6818Z" fill="#333333"/>
<path d="M55.0815 43.758H52.1005V35.2207H50.6062V43.758H47.6252V37.0003C47.6252 36.6564 47.6067 36.3696 47.5682 36.146C47.5281 35.91 47.4525 35.7204 47.343 35.58C47.2289 35.4335 47.0762 35.3348 46.8896 35.287C46.72 35.2438 46.5072 35.2207 46.2589 35.2207H44.8926V35.7512H45.2951C45.6575 35.7512 45.878 35.8499 45.9705 36.055C46.0769 36.2909 46.1309 36.6086 46.1309 37.0019V44.5645H56.5743V35.2222H55.0799V43.758H55.0815Z" fill="#333333"/>
<path d="M61.5178 42.7103V37.0013C61.5178 36.659 61.4993 36.3706 61.4608 36.147C61.4207 35.911 61.3451 35.7213 61.2356 35.581C61.1215 35.4345 60.9688 35.3358 60.7822 35.288C60.6095 35.2433 60.4029 35.2217 60.1515 35.2217H58.7852V35.7522H59.1877C59.5501 35.7522 59.7706 35.8509 59.8631 36.056C59.9695 36.2919 60.0235 36.6096 60.0235 37.0028V44.5655H61.4654L65.6693 37.0769V44.5655H67.1636V35.2232H65.7217L61.5178 42.7103Z" fill="#333333"/>
<path d="M77.6491 43.5544C77.2389 43.2722 76.8456 42.9329 76.4771 42.5474L73.3974 39.3428L75.9944 36.7459C76.3583 36.3819 76.6806 36.1336 76.9551 36.0072C77.2265 35.8823 77.5442 35.8191 77.9005 35.8191H78.0285V35.2207H77.2127C76.9212 35.2207 76.6575 35.2685 76.4293 35.361C76.2041 35.452 75.9959 35.5708 75.8062 35.7157C75.6212 35.8592 75.4438 36.018 75.2819 36.1907C75.1215 36.3603 74.955 36.5315 74.7807 36.7042L72.1066 39.3783V37.0003C72.1066 36.658 72.0881 36.3696 72.0496 36.146C72.0095 35.91 71.9339 35.7204 71.8244 35.58C71.7103 35.4335 71.5577 35.3348 71.3711 35.287C71.1983 35.2423 70.9917 35.2207 70.7403 35.2207H69.374V35.7512H69.7765C70.1389 35.7512 70.3594 35.8499 70.4519 36.055C70.5583 36.2909 70.6123 36.6086 70.6123 37.0019V44.5645H72.1066V40.2111L74.7776 43.01C75.1123 43.3632 75.4238 43.65 75.7014 43.8628C75.9805 44.0772 76.2488 44.2499 76.4987 44.3779C76.7516 44.5059 76.989 44.5938 77.2065 44.637C77.4193 44.6786 77.629 44.7018 77.8295 44.7018C78.047 44.7018 78.2336 44.6879 78.3831 44.6586C78.5296 44.6308 78.6592 44.5969 78.7671 44.5568L78.8504 44.526V44.0494L78.7394 44.0356C78.4155 43.9908 78.0485 43.8305 77.6491 43.5544Z" fill="#333333"/>
<path d="M88.7894 44.034C88.6089 44.0171 88.4547 43.9831 88.3282 43.9322C88.2064 43.8844 88.0892 43.8089 87.9828 43.7102C87.8733 43.6099 87.7731 43.4742 87.6852 43.3092C87.5896 43.1319 87.4878 42.916 87.3814 42.6661L84.3187 35.2207H83.7358L79.7725 44.563H80.6685L81.7695 41.946H85.4537L85.7652 42.7571C85.9163 43.1643 86.1029 43.4973 86.3188 43.7472C86.5332 43.9955 86.7584 44.1882 86.9851 44.3178C87.2117 44.4488 87.4384 44.5352 87.659 44.5738C87.8764 44.6123 88.0615 44.6308 88.2249 44.6308C88.4439 44.6308 88.6413 44.6061 88.8109 44.5568L88.9035 44.5306V44.0433L88.7894 44.034ZM82.0857 41.1425L83.6109 37.6048L85.0759 41.1425H82.0857Z" fill="#333333"/>
<path d="M27.4609 22.1728L28.9738 20.0693L31.617 21.9708L31.3718 22.3116L29.0092 20.6122L27.9899 22.0294L30.3524 23.7288L30.1042 24.0743L27.4609 22.1728Z" fill="#878787"/>
<path d="M30.1141 24.1264L27.4092 22.1818L28.9667 20.0166L31.6716 21.9612L31.3833 22.3637L29.0207 20.6643L28.0461 22.0198L30.4086 23.7193L30.1141 24.1264ZM27.5156 22.1633L30.0971 24.02L30.3007 23.7362L27.9381 22.0368L29.0022 20.5579L31.3648 22.2573L31.5652 21.9782L28.9837 20.1215L27.5156 22.1633Z" fill="#878787"/>
<path d="M29.6953 19.1755L30.5527 18.2009C31.0216 17.6658 31.6076 17.5655 32.0733 17.9819C32.5344 18.3875 32.5082 18.9982 32.0517 19.5179L31.4657 20.1841L32.4126 21.0168L32.1411 21.3253L29.6953 19.1755ZM31.7695 19.2696C32.081 18.9149 32.0825 18.5417 31.7988 18.2919C31.5104 18.039 31.1403 18.0883 30.8303 18.443L30.2443 19.1092L31.185 19.9358L31.7695 19.2696Z" fill="#878787"/>
<path d="M32.1445 21.3776L29.6416 19.1785L30.5237 18.1745C30.7874 17.8738 31.0866 17.7057 31.3904 17.6872C31.6402 17.6718 31.887 17.7628 32.0982 17.9509C32.564 18.3596 32.5562 18.998 32.0797 19.5409L31.5199 20.1793L32.4668 21.0121L32.1445 21.3776ZM29.748 19.1708L32.1383 21.2696L32.3604 21.0167L31.4135 20.1839L32.0242 19.49C32.4776 18.9734 32.4884 18.392 32.0504 18.0064C31.8546 17.8322 31.631 17.7474 31.3981 17.7612C31.1143 17.7782 30.8337 17.9386 30.5838 18.2223L29.748 19.1708ZM31.1884 19.9896L30.1906 19.1137L30.8013 18.4182C30.9586 18.2393 31.1375 18.1298 31.3164 18.1021C31.4968 18.0743 31.6726 18.1314 31.8222 18.2624C31.9718 18.3935 32.0473 18.5585 32.0442 18.742C32.0396 18.924 31.9548 19.1152 31.7975 19.2941L31.1884 19.9896ZM30.297 19.106L31.1807 19.8817L31.7404 19.2432C31.887 19.0782 31.9656 18.904 31.9687 18.739C31.9718 18.5801 31.9039 18.4352 31.7728 18.318C31.6387 18.2008 31.4845 18.1514 31.3272 18.1745C31.1652 18.1992 31.0033 18.2995 30.8568 18.466L30.297 19.106Z" fill="#878787"/>
<path d="M35.7858 17.5562L33.943 15.5791L33.9121 15.6084L34.6262 18.6372L34.1836 19.0489L31.9629 16.6663L32.2744 16.3764L34.1157 18.3534L34.1466 18.3257L33.4325 15.2969L33.8721 14.8867L36.0912 17.2693L35.7858 17.5562Z" fill="#878787"/>
<path d="M34.1817 19.103L31.9102 16.6665L32.2756 16.3256L34.0954 18.278L33.3906 15.2862L33.8733 14.8359L36.1449 17.2741L35.7825 17.6118L33.9612 15.6579L34.666 18.6512L34.1817 19.103ZM32.0166 16.6695L34.1848 18.9966L34.5842 18.625L33.8702 15.5977L33.9442 15.5284L33.9704 15.5561L35.7871 17.5054L36.0385 17.271L33.8702 14.9439L33.4754 15.3125L34.1894 18.3412L34.1154 18.4106L32.2741 16.4336L32.0166 16.6695Z" fill="#878787"/>
<path d="M34.7705 14.1421L35.8994 13.2863C36.3743 12.9269 36.9403 12.9547 37.2472 13.3603C37.4338 13.607 37.443 13.9478 37.2749 14.1838L37.3027 14.2208C37.6235 14.0928 37.9951 14.1946 38.2064 14.4737C38.5241 14.8932 38.3837 15.4869 37.8609 15.8817L36.7352 16.7345L34.7705 14.1421ZM36.7043 14.4321C37.0128 14.1977 37.1053 13.8615 36.9249 13.6224C36.7444 13.3834 36.3928 13.3772 36.0829 13.6116L35.3288 14.1838L35.9502 15.0042L36.7043 14.4321ZM37.5942 15.6211C37.9473 15.3543 38.0599 14.9672 37.8609 14.7066C37.6682 14.4521 37.2719 14.4644 36.9187 14.7312L36.1723 15.2972L36.8462 16.187L37.5942 15.6211Z" fill="#878787"/>
<path d="M36.7297 16.7892L34.7188 14.1367L35.8784 13.2577C36.3704 12.8845 36.9595 12.9184 37.2787 13.3379C37.4653 13.5847 37.4853 13.9224 37.3311 14.1722C37.6596 14.0612 38.0282 14.1722 38.2394 14.4513C38.5725 14.8908 38.4244 15.5062 37.8862 15.9133L36.7297 16.7892ZM34.8236 14.1506L36.7436 16.6828L37.8384 15.8516C38.3411 15.4707 38.4831 14.9001 38.1762 14.4961C37.9773 14.2323 37.6226 14.1336 37.3157 14.2555L37.2894 14.2663L37.2278 14.1845L37.2432 14.1614C37.4036 13.9347 37.3928 13.6155 37.2155 13.3826C36.9225 12.9971 36.3781 12.9693 35.9216 13.3163L34.8236 14.1506ZM36.8407 16.2417L36.1206 15.2918L36.8978 14.7027C37.2694 14.422 37.6874 14.4143 37.8925 14.6842C37.9958 14.8199 38.0235 14.9942 37.9711 15.1731C37.9202 15.3489 37.7938 15.5185 37.618 15.6527L36.8407 16.2417ZM36.2269 15.3057L36.8561 16.1353L37.5732 15.5925C37.7367 15.4676 37.8539 15.3118 37.9002 15.1515C37.9449 14.9957 37.9218 14.8461 37.8339 14.7304C37.655 14.4945 37.2817 14.5084 36.944 14.7628L36.2269 15.3057ZM35.9431 15.0574L35.2754 14.1768L36.0589 13.5831C36.2115 13.4674 36.3843 13.4027 36.5431 13.4027H36.5477C36.7143 13.4042 36.8577 13.4752 36.9533 13.6001C37.0489 13.725 37.0767 13.8807 37.0335 14.0396C36.9919 14.1938 36.8824 14.3449 36.7266 14.4637L35.9431 15.0574ZM35.3819 14.1907L35.9585 14.951L36.6819 14.402C36.8253 14.294 36.924 14.1583 36.9626 14.0195C36.9996 13.8823 36.9763 13.7527 36.8946 13.6463C36.8144 13.5399 36.6927 13.4798 36.5508 13.4782C36.5477 13.4782 36.5462 13.4782 36.5462 13.4782C36.4012 13.4782 36.2455 13.5368 36.1051 13.6433L35.3819 14.1907Z" fill="#878787"/>
<path d="M38.3838 11.5873L38.8711 11.2881L41.6084 13.427L41.266 13.6368L40.6492 13.1602L39.2366 14.0269L39.3816 14.7934L39.0392 15.0031L38.3838 11.5873ZM40.3654 12.9274L38.8356 11.743L38.8002 11.7646L39.161 13.6661L40.3654 12.9274Z" fill="#878787"/>
<path d="M39.0122 15.0642L39.0014 15.0102L38.3398 11.5681L38.8719 11.2412L41.6739 13.4295L41.2622 13.6824L40.6453 13.2059L39.2775 14.0464L39.4224 14.8128L39.0122 15.0642ZM38.4247 11.6052L39.0662 14.9423L39.3391 14.7743L39.1942 14.0078L40.6515 13.1134L41.2684 13.5899L41.5429 13.4218L38.8688 11.3337L38.4247 11.6052ZM39.134 13.7271L38.7578 11.7455L38.838 11.6961L40.431 12.9299L39.134 13.7271ZM38.8457 11.7964L39.188 13.6053L40.2984 12.9237L38.8457 11.7964Z" fill="#878787"/>
<path d="M41.2149 10.4049L40.2496 10.8922L40.083 10.5622L42.387 9.39941L42.5535 9.72943L41.5881 10.2168L42.8882 12.7937L42.5134 12.9833L41.2149 10.4049Z" fill="#878787"/>
<path d="M42.5001 13.0328L42.4831 12.9989L41.2 10.4559L40.2347 10.9432L40.0342 10.5453L40.0681 10.5284L42.406 9.34863L42.6065 9.7465L41.6411 10.2338L42.9411 12.8107L42.5001 13.0328ZM41.2324 10.3541L41.2494 10.388L42.5324 12.931L42.8409 12.7753L41.5408 10.1984L42.5062 9.71104L42.3736 9.44887L40.136 10.5777L40.2686 10.8399L41.2324 10.3541Z" fill="#878787"/>
<path d="M43.0762 9.08919L43.4725 8.93344L43.9737 10.2103L45.6068 9.5688L45.1041 8.29191L45.4958 8.1377L46.6879 11.168L46.2961 11.3222L45.7425 9.91269L44.1094 10.5542L44.6646 11.9637L44.2698 12.1195L43.0762 9.08919Z" fill="#878787"/>
<path d="M44.2472 12.1694L43.0273 9.06812L43.4931 8.88461L43.9943 10.1615L45.558 9.54773L45.0553 8.27084L45.5163 8.08887L46.7362 11.1901L46.2751 11.3721L45.7215 9.96256L44.1577 10.5763L44.7129 11.9858L44.2472 12.1694ZM43.1245 9.1113L44.2888 12.0722L44.6142 11.9442L44.059 10.5347L45.7631 9.86541L46.3167 11.2749L46.6375 11.1485L45.4732 8.18756L45.1524 8.31402L45.6551 9.59091L43.9511 10.2602L43.4499 8.98331L43.1245 9.1113Z" fill="#878787"/>
<path d="M47.5005 7.51847L48.0526 7.36426L50.1021 10.1709L49.715 10.2789L49.2508 9.65125L47.6547 10.0985L47.5853 10.8757L47.1982 10.9852L47.5005 7.51847ZM49.0411 9.35053L47.8937 7.79143L47.8537 7.80222L47.6809 9.73144L49.0411 9.35053Z" fill="#878787"/>
<path d="M47.1553 11.0355L47.4652 7.48702L48.0667 7.31738L48.0821 7.33897L50.164 10.1904L49.6998 10.3199L49.2356 9.69227L47.6889 10.1256L47.6195 10.9029L47.1553 11.0355ZM47.5362 7.54716L47.2401 10.9337L47.5501 10.8473L47.6195 10.0701L49.2665 9.60745L49.7306 10.2351L50.0406 10.1487L48.0389 7.40683L47.5362 7.54716ZM47.638 9.78326L47.8184 7.77385L47.9094 7.74918L47.9248 7.77077L49.1045 9.37305L47.638 9.78326ZM47.8878 7.84634L47.7228 9.67994L48.9781 9.32679L47.8878 7.84634Z" fill="#878787"/>
<path d="M51.3433 8.24618C51.2075 7.24533 51.809 6.428 52.779 6.29692C53.5053 6.19822 54.2132 6.60535 54.4692 7.26075L54.0698 7.37024C53.8785 6.8891 53.3588 6.59147 52.8283 6.6624C52.0974 6.7611 51.6532 7.40417 51.7596 8.19066C51.866 8.97715 52.469 9.48297 53.1969 9.38427C53.7181 9.31334 54.1422 8.8985 54.2147 8.40348L54.6234 8.42815C54.5494 9.08973 53.9741 9.65261 53.2462 9.74976C52.2778 9.8793 51.4743 9.24702 51.3433 8.24618Z" fill="#878787"/>
<path d="M52.9973 9.80341C52.6195 9.80341 52.2633 9.68775 51.9749 9.46568C51.6094 9.18501 51.3704 8.75322 51.3056 8.25048C51.2377 7.757 51.3488 7.2851 51.6156 6.92116C51.8824 6.55876 52.2941 6.32281 52.7737 6.25804C53.5124 6.1578 54.2403 6.57264 54.504 7.24501L54.5194 7.28356L54.0475 7.4131L54.0352 7.38226C53.8517 6.91653 53.3443 6.6297 52.8339 6.69755C52.1291 6.79316 51.6942 7.41773 51.7975 8.18263C51.9024 8.95061 52.4869 9.43947 53.1932 9.34385C53.6928 9.276 54.1077 8.87659 54.1786 8.39544L54.1832 8.36151L54.6659 8.38927L54.6613 8.42937C54.5857 9.11408 53.992 9.68467 53.2518 9.78491C53.1654 9.79724 53.0806 9.80341 52.9973 9.80341ZM52.9942 6.31818C52.9248 6.31818 52.8539 6.32281 52.783 6.33206C52.3249 6.39375 51.9317 6.6189 51.6757 6.96588C51.4197 7.31286 51.3149 7.76471 51.3796 8.23969C51.4428 8.72392 51.6695 9.13721 52.0196 9.40554C52.3558 9.66308 52.7876 9.77103 53.2394 9.71088C53.9319 9.61681 54.4886 9.09557 54.578 8.46175L54.2434 8.44171C54.1539 8.94136 53.7206 9.34848 53.1993 9.41942C52.4529 9.51966 51.8299 9.00458 51.7189 8.19342C51.6094 7.38534 52.0736 6.72377 52.82 6.62353C53.352 6.55259 53.8825 6.84405 54.0892 7.32366L54.4161 7.23421C54.1817 6.67904 53.6095 6.31818 52.9942 6.31818Z" fill="#878787"/>
<path d="M55.9752 6.49358L54.8957 6.53676L54.8818 6.16819L57.4618 6.06641L57.4757 6.43498L56.3962 6.47816L56.5103 9.36195L56.0909 9.37891L55.9752 6.49358Z" fill="#878787"/>
<path d="M56.0524 9.41794L56.0508 9.38092L55.9383 6.53414L54.8588 6.57732L54.8418 6.13319L54.8788 6.13164L57.4974 6.02832L57.5143 6.47246L56.4348 6.51564L56.5489 9.40097L56.0524 9.41794ZM56.0123 6.45395L56.0138 6.49096L56.1264 9.33774L56.4703 9.32387L56.3562 6.44007L57.4357 6.39689L57.4249 6.10389L54.9204 6.20258L54.9312 6.49713L56.0123 6.45395Z" fill="#878787"/>
<path d="M57.921 7.67396C57.9827 6.66078 58.7538 5.98224 59.7824 6.04392C60.8095 6.10715 61.4926 6.87359 61.4325 7.88678C61.3708 8.90921 60.5982 9.58313 59.5711 9.52144C58.5425 9.45976 57.8578 8.6964 57.921 7.67396ZM61.0068 7.8621C61.0547 7.06482 60.538 6.4603 59.7593 6.41249C58.9805 6.36469 58.3883 6.90289 58.3405 7.69864C58.2911 8.49592 58.8139 9.10506 59.5927 9.15287C60.3699 9.20068 60.9575 8.65784 61.0068 7.8621Z" fill="#878787"/>
<path d="M59.7026 9.56289C59.6578 9.56289 59.6131 9.56135 59.5669 9.55827C59.0595 9.52742 58.6123 9.32232 58.3085 8.98151C58.0031 8.6407 57.852 8.17497 57.8828 7.66915C57.9137 7.16796 58.1188 6.7269 58.4642 6.42465C58.8081 6.12239 59.2816 5.97434 59.7843 6.00364C60.8237 6.06687 61.5315 6.85953 61.4683 7.88659C61.4066 8.89206 60.6895 9.56289 59.7026 9.56289ZM59.6532 6.07767C59.2153 6.07767 58.8143 6.21954 58.5136 6.48325C58.1851 6.77163 57.9877 7.19571 57.9584 7.67532C57.9291 8.15955 58.0741 8.60523 58.3655 8.93216C58.657 9.25755 59.0857 9.4534 59.573 9.48424C60.5816 9.54439 61.3326 8.88898 61.3943 7.88505C61.4544 6.8842 60.7913 6.14398 59.7797 6.08229C59.7365 6.07921 59.6949 6.07767 59.6532 6.07767ZM59.6841 9.19278C59.6532 9.19278 59.6208 9.19124 59.59 9.1897C59.2029 9.16656 58.8606 9.0031 58.6277 8.73014C58.3933 8.45872 58.2792 8.09015 58.3023 7.69537C58.327 7.30058 58.4858 6.95052 58.7511 6.70994C59.0163 6.46937 59.3756 6.35063 59.7612 6.37376C60.1467 6.39689 60.4891 6.55881 60.7219 6.83023C60.9548 7.1001 61.0689 7.46713 61.0442 7.86346C61.0195 8.25979 60.8623 8.60985 60.5985 8.85197C60.3564 9.07404 60.0341 9.19278 59.6841 9.19278ZM59.6656 6.44778C59.334 6.44778 59.0302 6.56035 58.8004 6.767C58.5506 6.99369 58.3995 7.32525 58.3763 7.70154C58.3532 8.07782 58.4627 8.42634 58.6832 8.68233C58.9037 8.93987 59.2276 9.09254 59.5931 9.11567C59.957 9.13881 60.2978 9.02469 60.5461 8.79645C60.7944 8.56822 60.9455 8.23511 60.9671 7.85883C60.9902 7.48255 60.8823 7.13557 60.6618 6.87958C60.4428 6.62358 60.1205 6.47091 59.755 6.44932C59.7257 6.44778 59.6964 6.44778 59.6656 6.44778Z" fill="#878787"/>
<path d="M62.5459 6.39062L63.1982 6.51399L63.758 9.33456L63.7997 9.34227L65.3572 6.92266L66.0065 7.04603L65.4004 10.2429L64.9871 10.1642L65.4929 7.48863L65.4528 7.48092L63.8675 9.95142L63.4727 9.87739L62.9037 7.00285L62.8636 6.99514L62.3578 9.66612L61.9414 9.58747L62.5459 6.39062Z" fill="#878787"/>
<path d="M65.4311 10.2872L64.9437 10.1947L64.9515 10.1577L65.4403 7.57309L63.8858 9.99578L63.4417 9.91251L62.8835 7.09503L62.3884 9.71203L61.8965 9.6195L61.9042 9.58249L62.5164 6.34863L63.232 6.48434L63.7902 9.29257L65.3401 6.88221L66.051 7.01638L66.0433 7.05339L65.4311 10.2872ZM65.0332 10.1346L65.3725 10.1993L65.9631 7.07652L65.3771 6.96549L63.8195 9.3851L63.7285 9.36814L63.1672 6.54757L62.5766 6.43499L61.9859 9.55782L62.3283 9.62259L62.8341 6.95161L62.9374 6.97011L63.5065 9.84466L63.8504 9.90942L65.4357 7.43892L65.539 7.45743L65.5313 7.49444L65.0332 10.1346Z" fill="#878787"/>
<path d="M68.0689 7.64941L68.6149 7.82059L68.7999 11.2904L68.4175 11.1701L68.3712 10.3913L66.789 9.89476L66.3063 10.5085L65.9238 10.3883L68.0689 7.64941ZM68.3604 10.0243L68.2494 8.09355L68.2093 8.08121L67.011 9.60176L68.3604 10.0243Z" fill="#878787"/>
<path d="M68.8398 11.3425L68.3801 11.1991L68.3339 10.4203L66.8026 9.93913L66.3199 10.5529L65.8604 10.4095L65.8942 10.3663L68.0564 7.60742L68.6531 7.79402L68.6547 7.82024L68.8398 11.3425ZM68.4527 11.142L68.7596 11.2376L68.5791 7.84799L68.0826 7.69224L65.9868 10.3678L66.292 10.4635L66.7747 9.84969L68.4063 10.3617L68.4527 11.142ZM68.4002 10.0764L66.9476 9.61991L68.195 8.03614L68.2845 8.06389L68.286 8.09011L68.4002 10.0764ZM67.0756 9.5829L68.32 9.97306L68.2151 8.13792L67.0756 9.5829Z" fill="#878787"/>
<path d="M70.8143 9.0059L69.8135 8.59724L69.9538 8.25488L72.3441 9.22951L72.2053 9.57187L71.2045 9.16474L70.1142 11.8388L69.7256 11.68L70.8143 9.0059Z" fill="#878787"/>
<path d="M70.1344 11.8871L69.6748 11.7005L69.6887 11.6651L70.7636 9.02647L69.7627 8.6178L69.9308 8.20605L72.3905 9.20844L72.2224 9.62019L71.2216 9.21307L70.1344 11.8871ZM69.7735 11.6589L70.0927 11.7884L71.1815 9.11592L72.1823 9.52304L72.2934 9.25008L69.9724 8.30475L69.8614 8.57771L70.8623 8.98638L70.8484 9.02184L69.7735 11.6589Z" fill="#878787"/>
<path d="M72.0995 10.8812C72.5745 9.98217 73.5599 9.68299 74.4697 10.1657C75.3796 10.6468 75.6865 11.6292 75.21 12.5282C74.7304 13.435 73.748 13.7296 72.8382 13.2484C71.9283 12.7657 71.6199 11.788 72.0995 10.8812ZM74.8352 12.3293C75.21 11.623 74.9879 10.8581 74.297 10.4926C73.6061 10.1271 72.8443 10.3723 72.4711 11.0786C72.0964 11.7849 72.32 12.556 73.0109 12.9215C73.7002 13.2854 74.4605 13.0356 74.8352 12.3293Z" fill="#878787"/>
<path d="M73.7193 13.5132C73.4186 13.5132 73.1101 13.4345 72.8187 13.2803C72.3684 13.0428 72.0461 12.6712 71.9088 12.2348C71.7716 11.7968 71.8271 11.311 72.063 10.8638C72.2974 10.4197 72.6691 10.102 73.1071 9.96936C73.5466 9.83674 74.0354 9.8938 74.4842 10.1313C74.9329 10.3688 75.2552 10.7404 75.3925 11.1784C75.5297 11.6164 75.4758 12.1006 75.2398 12.5447C75.0039 12.9919 74.6322 13.3112 74.1927 13.4438C74.0416 13.4901 73.8812 13.5132 73.7193 13.5132ZM73.5882 9.97399C73.4325 9.97399 73.2798 9.99558 73.1317 10.0403C72.7123 10.1668 72.3576 10.4721 72.1324 10.8977C71.9057 11.3264 71.8518 11.7937 71.9828 12.2116C72.1139 12.6295 72.4239 12.9858 72.8557 13.214C73.2875 13.4422 73.7548 13.4993 74.1742 13.3713C74.5937 13.2449 74.9499 12.938 75.1766 12.5093C75.4018 12.0836 75.4542 11.6194 75.3231 11.2C75.192 10.7821 74.8821 10.4258 74.4518 10.1976C74.1711 10.0495 73.875 9.97399 73.5882 9.97399ZM73.6576 13.1246C73.434 13.1246 73.2073 13.0675 72.9929 12.9534C72.6506 12.7714 72.4069 12.4815 72.3051 12.1361C72.2049 11.7922 72.2512 11.4082 72.4378 11.0581C72.6228 10.708 72.9127 10.4551 73.2536 10.3456C73.5944 10.2361 73.9722 10.2762 74.3145 10.4567C74.6569 10.6386 74.9006 10.927 75.0008 11.2709C75.101 11.6133 75.0532 11.9957 74.8682 12.3458C74.6831 12.6959 74.3932 12.9503 74.0539 13.0613C73.9244 13.1045 73.7918 13.1246 73.6576 13.1246ZM73.6437 10.3611C73.5188 10.3611 73.3954 10.3796 73.2767 10.4181C72.9544 10.5214 72.6799 10.762 72.5041 11.0951C72.3283 11.4282 72.2836 11.7906 72.3776 12.116C72.4732 12.4414 72.703 12.7159 73.0284 12.8871C73.3523 13.0583 73.7085 13.0953 74.0293 12.9904C74.35 12.8855 74.6245 12.645 74.8003 12.3103C74.9761 11.9772 75.0224 11.6148 74.9268 11.2925C74.8327 10.9687 74.6014 10.6957 74.2775 10.5245C74.074 10.4166 73.8565 10.3611 73.6437 10.3611Z" fill="#878787"/>
<path d="M74.8399 13.7825C75.2177 14.0385 75.5153 13.9552 75.9132 13.4648L77.207 11.8965L78.8911 13.0346L77.0683 15.7318L76.7197 15.4958L78.3359 13.104L77.3135 12.4131L76.1245 13.8442C75.6942 14.367 75.1699 14.4487 74.6348 14.0863L74.8399 13.7825Z" fill="#878787"/>
<path d="M77.0782 15.7857L76.668 15.5081L78.2841 13.1163L77.3218 12.467L76.1544 13.8719C75.7134 14.4055 75.1675 14.4949 74.6139 14.1217L74.583 14.1002L74.8313 13.7316L74.8621 13.7532C75.2245 13.9984 75.5021 13.9136 75.8846 13.4432L77.2 11.8486L77.2278 11.8671L78.9426 13.0253L77.0782 15.7857ZM76.7713 15.4881L77.0566 15.6808L78.8362 13.0453L77.2124 11.9489L75.9416 13.491C75.5438 13.9814 75.2338 14.0801 74.8498 13.8365L74.6848 14.0801C75.1968 14.4101 75.6826 14.3207 76.0928 13.8241L77.3049 12.3668L78.3859 13.0978L76.7713 15.4881Z" fill="#878787"/>
<path d="M78.6377 14.8507C79.2962 14.0766 80.3233 13.9995 81.1067 14.6672C81.8901 15.335 81.9764 16.3605 81.3164 17.1347C80.6502 17.915 79.6277 17.9905 78.8443 17.3212C78.0609 16.652 77.973 15.6311 78.6377 14.8507ZM80.9941 16.8586C81.5122 16.251 81.4613 15.4553 80.8676 14.9479C80.2739 14.4421 79.4766 14.5146 78.9585 15.1237C78.4403 15.7313 78.4912 16.5332 79.0849 17.0406C79.6786 17.5464 80.4759 17.4662 80.9941 16.8586Z" fill="#878787"/>
<path d="M80.0066 17.8166C79.5995 17.8166 79.1846 17.6623 78.8191 17.3508C78.0142 16.6646 77.9263 15.6267 78.6079 14.8264C78.9333 14.4439 79.3651 14.2157 79.8215 14.1802C80.2795 14.1463 80.7437 14.3082 81.1308 14.6382C81.9235 15.3137 82.0129 16.3747 81.3452 17.1581C80.9735 17.5945 80.4955 17.8166 80.0066 17.8166ZM79.9434 14.2511C79.9048 14.2511 79.8663 14.2527 79.8292 14.2558C79.3928 14.2882 78.9795 14.5087 78.668 14.8757C78.0157 15.6406 78.099 16.6353 78.87 17.2938C79.6411 17.9507 80.6373 17.8767 81.2897 17.1103C81.9404 16.3469 81.8556 15.3538 81.0845 14.6968C80.7437 14.4069 80.3428 14.2511 79.9434 14.2511ZM79.9495 17.411C79.6334 17.411 79.3203 17.2922 79.0597 17.0686C78.7652 16.8173 78.5894 16.4811 78.5662 16.1218C78.5431 15.764 78.6726 15.4 78.9286 15.0978C79.1862 14.7955 79.5239 14.612 79.8801 14.5796C80.2395 14.5457 80.5972 14.6675 80.8918 14.9189C81.4963 15.434 81.5518 16.2605 81.0229 16.882C80.7653 17.1843 80.4276 17.3693 80.0714 17.4033C80.0297 17.4094 79.9896 17.411 79.9495 17.411ZM79.9958 14.6506C79.9603 14.6506 79.9233 14.6521 79.8878 14.6552C79.5517 14.686 79.2309 14.8603 78.9872 15.1471C78.742 15.434 78.6202 15.7779 78.6418 16.1171C78.6634 16.4549 78.8299 16.7725 79.1091 17.0116C79.3882 17.2491 79.7244 17.3616 80.0637 17.3308C80.3998 17.2984 80.7206 17.1226 80.9643 16.8358C81.4732 16.2374 81.4238 15.4741 80.8424 14.979C80.5926 14.7647 80.2965 14.6506 79.9958 14.6506Z" fill="#878787"/>
<path d="M83.0447 16.5898L84.5545 18.169L84.2877 18.425L83.0709 17.1527L80.9844 19.1482L80.6914 18.8414L83.0447 16.5898Z" fill="#878787"/>
<path d="M80.9841 19.2009L80.6387 18.8385L83.0459 16.5361L84.6081 18.1693L84.2858 18.4777L83.0691 17.2054L80.9841 19.2009ZM80.7451 18.8416L80.9857 19.0945L83.0722 17.099L84.2889 18.3713L84.5017 18.1677L83.0444 16.6441L80.7451 18.8416Z" fill="#878787"/>
<path d="M85.0402 18.7598L85.3116 19.0805L82.8241 21.1794L82.5527 20.8586L85.0402 18.7598Z" fill="#878787"/>
<path d="M82.8192 21.2336L82.5 20.8542L85.0445 18.7061L85.3653 19.0854L82.8192 21.2336ZM82.6064 20.8635L82.8285 21.1272L85.2589 19.0762L85.0368 18.8125L82.6064 20.8635Z" fill="#878787"/>
<path d="M84.5506 23.4307L85.5792 22.6781L85.2276 22.197L83.5312 22.0366L83.2197 21.6125L84.9623 21.796L84.93 21.7513C84.5969 21.2501 84.6539 20.6718 85.1011 20.3433C85.5854 19.9886 86.1745 20.1352 86.5893 20.7027L87.4267 21.8469L84.8004 23.77L84.5506 23.4307ZM86.8792 21.7251L86.2901 20.9201C86.0172 20.5469 85.6517 20.4544 85.3463 20.678C85.0379 20.9047 85.0132 21.2779 85.2893 21.6542L85.8784 22.4591L86.8792 21.7251Z" fill="#878787"/>
<path d="M84.7913 23.822L84.4983 23.4226L85.5269 22.6701L85.2076 22.2336L83.5113 22.0733L83.1396 21.5659L84.8838 21.7494C84.5522 21.2282 84.6309 20.6406 85.0781 20.3121C85.3249 20.1317 85.6009 20.0716 85.88 20.1394C86.1545 20.2057 86.4105 20.3923 86.6187 20.6792L87.4792 21.8543L87.4484 21.8774L84.7913 23.822ZM84.6047 23.4396L84.8082 23.7172L87.3743 21.8389L86.5586 20.7254C86.3596 20.454 86.1191 20.2782 85.8631 20.215C85.6071 20.1533 85.3511 20.2073 85.1244 20.3754C84.7034 20.6838 84.6371 21.2421 84.9625 21.7325L85.0457 21.845L83.3031 21.6615L83.5529 22.0039L85.2493 22.1643L85.6333 22.6886L84.6047 23.4396ZM85.8692 22.5128L85.257 21.6769C84.9686 21.2837 84.9948 20.8889 85.3233 20.6483C85.6456 20.4124 86.0373 20.5111 86.3211 20.8982L86.9333 21.734L85.8692 22.5128ZM85.6934 20.5959C85.5824 20.5959 85.4714 20.6329 85.368 20.7085C85.0766 20.9228 85.0581 21.276 85.3187 21.6322L85.8862 22.4064L86.8269 21.717L86.2594 20.9429C86.0928 20.7146 85.8924 20.5959 85.6934 20.5959Z" fill="#878787"/>
</g>
<defs>
<linearGradient id="paint0_linear_17397_601" x1="6.99884" y1="25.179" x2="106.844" y2="25.179" gradientUnits="userSpaceOnUse">
<stop offset="0.0255" stop-color="#61C4E2"/>
<stop offset="0.5249" stop-color="#2D68B1"/>
<stop offset="0.9688" stop-color="#61C4E2"/>
</linearGradient>
<linearGradient id="paint1_linear_17397_601" x1="6.9993" y1="56.3122" x2="106.998" y2="56.3122" gradientUnits="userSpaceOnUse">
<stop offset="0.0255" stop-color="#61C4E2"/>
<stop offset="0.5249" stop-color="#2D68B1"/>
<stop offset="0.9688" stop-color="#61C4E2"/>
</linearGradient>
<clipPath id="clip0_17397_601">
<rect width="100" height="60" fill="white" transform="translate(7 6)"/>
</clipPath>
</defs>
</svg>
